/* XPM */
static char *_648918169420[] = {
/* columns rows colors chars-per-pixel */
"50 50 223 2 ",
"   c #09090B",
".  c #191513",
"X  c #13151C",
"o  c #17181D",
"O  c #1B1C1C",
"+  c #1A1813",
"@  c #211F1C",
"#  c #241C15",
"$  c #23221E",
"%  c #2B221B",
"&  c #33261B",
"*  c #38291D",
"=  c #171C23",
"-  c #1E2125",
";  c #1D212A",
":  c #1E2633",
">  c #112236",
",  c #242423",
"<  c #292622",
"1  c #2B2926",
"2  c #23252A",
"3  c #26292C",
"4  c #2B2B2B",
"5  c #272827",
"6  c #342C25",
"7  c #392D24",
"8  c #312E2B",
"9  c #2F312E",
"0  c #32312E",
"q  c #3B322B",
"w  c #3C3024",
"e  c #242A33",
"r  c #2B2D33",
"t  c #242D3A",
"y  c #282C38",
"u  c #2F3033",
"i  c #2D323C",
"p  c #333334",
"a  c #3A3532",
"s  c #373833",
"d  c #3B3934",
"f  c #33353A",
"g  c #36393C",
"h  c #3B3B3B",
"j  c #38373D",
"k  c #412E1F",
"l  c #443325",
"z  c #43352B",
"x  c #4D3B2C",
"c  c #493627",
"v  c #533D2B",
"b  c #553A25",
"n  c #423A33",
"m  c #433E3A",
"M  c #4A3D35",
"N  c #3D413D",
"B  c #5B422B",
"V  c #53402F",
"C  c #43423D",
"Z  c #4B443D",
"A  c #5B4532",
"S  c #55483D",
"D  c #5C4B3C",
"F  c #574537",
"G  c #664B37",
"H  c #6A513B",
"J  c #74543A",
"K  c #62462E",
"L  c #343A44",
"P  c #3B3D43",
"I  c #343A45",
"U  c #2E3844",
"Y  c #3C414B",
"T  c #3C4047",
"R  c #374457",
"E  c #434343",
"W  c #4B4643",
"Q  c #4B4A45",
"!  c #434549",
"~  c #46494C",
"^  c #4C4C4B",
"/  c #464847",
"(  c #514743",
")  c #534D4D",
"_  c #564B43",
"`  c #4F504B",
"'  c #53514C",
"]  c #5F5248",
"[  c #4C4E53",
"{  c #434A56",
"}  c #534F50",
"|  c #545453",
" . c #5A5A56",
".. c #56595C",
"X. c #5C595A",
"o. c #585656",
"O. c #6A574B",
"+. c #68584B",
"@. c #735944",
"#. c #6B5D54",
"$. c #635D5B",
"%. c #665A53",
"&. c #7A614C",
"*. c #64625D",
"=. c #6C625A",
"-. c #736154",
";. c #7D6B5D",
":. c #76655B",
">. c #4D5768",
",. c #595B63",
"<. c #645E61",
"1. c #5C6063",
"2. c #656562",
"3. c #6A6966",
"4. c #756B63",
"5. c #7A6B61",
"6. c #756B69",
"7. c #72716C",
"8. c #7B716F",
"9. c #7D7975",
"0. c #696D70",
"q. c #87674D",
"w. c #836C5D",
"e. c #866B57",
"r. c #926F51",
"t. c #8C735E",
"y. c #99775E",
"u. c #926B4C",
"i. c #A57C5D",
"p. c #847062",
"a. c #8A7568",
"s. c #8C7464",
"d. c #967A64",
"f. c #9D7C64",
"g. c #947969",
"h. c #9B7E6A",
"j. c #937762",
"k. c #937E72",
"l. c #867E7C",
"z. c #AC805B",
"x. c #8C8379",
"c. c #918172",
"v. c #9E836E",
"b. c #A9866A",
"n. c #B18562",
"m. c #B48C6D",
"M. c #BA8E6B",
"N. c #BC916E",
"B. c #AD8D75",
"V. c #A58973",
"C. c #B38D73",
"Z. c #B88F73",
"A. c #AF927B",
"S. c #B59275",
"D. c #BC9373",
"F. c #BD9A7C",
"G. c #B89579",
"H. c #C29676",
"J. c #C39875",
"K. c #CB9D7B",
"L. c #C89D78",
"P. c #D19F7A",
"I. c #D3A37C",
"U. c #DAA57C",
"Y. c #DFA97D",
"T. c #CBA07D",
"R. c #E6A977",
"E. c #E9AB77",
"W. c #E5AC7C",
"Q. c #EBAD7D",
"!. c #E0A77C",
"~. c #ECB17E",
"^. c #797D80",
"/. c #7F8287",
"(. c #8B8682",
"). c #8D8D8C",
"_. c #8A8884",
"`. c #969594",
"'. c #9D9087",
"]. c #A8988A",
"[. c #B69C85",
"{. c #A99B90",
"}. c #B6A18C",
"|. c #B2A59D",
" X c #C49F81",
".X c #CCA483",
"XX c #C8A588",
"oX c #D0A381",
"OX c #D2A985",
"+X c #DCAB83",
"@X c #D3AC8A",
"#X c #DBAD8A",
"$X c #DDB38A",
"%X c #DBB791",
"&X c #CEAE95",
"*X c #E4AE83",
"=X c #EBAE81",
"-X c #E1AF8A",
";X c #E6B184",
":X c #ECB384",
">X c #EDB886",
",X c #E3B18A",
"<X c #EDB689",
"1X c #EEB98C",
"2X c #F1B485",
"3X c #F2B887",
"4X c #F2B689",
"5X c #F3BA8C",
"6X c #FABC8C",
"7X c #EEBB91",
"8X c #E3B790",
"9X c #F3BE92",
"0X c #FBBF91",
"qX c #FEC08F",
"wX c #EFC096",
"eX c #F5C195",
"rX c #FCC293",
"tX c #F4C299",
"yX c #FCC69A",
"uX c #FECA9B",
"iX c #FDC896",
"pX c #FDCCA1",
"aX c #F3CDA6",
/* pixels */
"<X3X~.~.~.W.W.>X3X3X~.W.W.>X<X3X<X:X*X+X*X3X5X2X<X<X:X:X9X9X:X2X:X=X=X9X4X4X2X=X=X=X=XQ.Q.1X3X=XQ.Q.",
"3X:X~.W.R.W.>X:X+X+X~.:X>X>X>X<X=X4X|.(.].XX#X<X4X2X=X<X9X5X2X2X:X=X4X4X:X4X=X=X4X2X2XW.<X6X~.E.E.E.",
":XE.:XW.Y.>X1X~.'.,.V.eX3X3X:XW.2X{.^.0.).)._.].[.oX:X6X5X3X2X=X=X4X9X4X4X2X=X4X5X:X=XQ.3X5X:XQ.Q.E.",
"~.~.:XW.W.>X:X;Xx.Q *._.'.}.XXI.#X`.| h | 7._.).).).`.]. X-X2X4X9X0X5X4X=X=X4X4X3X3XQ.3X5X2X~.:XE.Q.",
"W.~.W.W.~.1X1X>X:XA.F.+X}._.4.q.a.0.| ~ p $ 9 d m $.8.8.l.(.k.A.#X7X4X6X2X4X9X2X2X:X=X9X4X2X:XE.=X5X",
"E.W.~.~.;X1X>X>X$X}.F.6X~.{.).9.#.P / T p O $ % . O u C %.6.8.$.:.5.h.H.!.0X0X6X=XQ.5X5X3XQ.=XE.3X5X",
"~.~.;X;X1X5X+X[.@XY.T.2X;X`.9.[.4.~ P h @ # n % v a . 5 u p m E W ) _ ) =.t.m.U.2XrXrX5X=X2XQ.3X5X:X",
">X<X;X~.<X1XK..X:XXXXXrX,X].c.:X:.g h p + 1 t.e.b.@.  O 8 8 4 5 $ @ 4 p Z ( ( ( O.f.I.2X2X2XQ.6X3X~.",
">X;X~.;X1X:X:X:X+XXX1X9X8X%Xn.3Xc...C M C $ F.%X%XO.  . @ , 5 5 < @ O O o @ 6 p 0 a m -.W.>X3X6X3X~.",
";X~.W.1X1X:X>XW.<X5X1X,X%XaXn.N.Q p a 1 1   -.&XG.K X 2 2 5 $ , 2 @ = @ O @ O o O , 4 n *X6X9X6XQ.2X",
"~.~.>X1X:X;X~.1X1X<X1X+X@XaXu.q d d g $ % $ x &.D w , 2 ^  .' 9 5 p 8 2 , @ o O O O O 1 ;XeX2X2XQ.2X",
";X1X;X>X>X;X1X5X1X3X>XY.OX$XL..XL.J V 1 1 1 0 $ o O - < *. . .p 5 8 r 8 8 4 4 < , , O 8 =X2X~.Q.Q.Q.",
">X;X~.;X;XwX1X6X;XI.<X1XH.N.$XJ.F.r.J V z 5 6 , 1 0 & 9 2.C N p 5 C #.( 8 , O o @ 5 4 m !.Q.~.2X~.~.",
">X:X~.;X1X>X6XB.g i :.9X;XL.n.i.i.q.@.x J C s C H F ` O p 9 1 1 ; V.0X2XU.M.i.;._ n 4 p E.2X~.2X3X6X",
";X>X;X1X1X>XJ.Q | E : -.6X6X5X;XW.&.$ Z J *. .G G ;.0.O z 6 9 9 ; C.6X*X2X6XyXyX6X2XoXG.:X2X2X5X6X5X",
">X~.;X>X>X;Xd.@XyX#.y e #.3X3XrXv.o O Q A ] D J D ]  .- V y.` C 2 ] 6XW.5X9X<X4X2X2X2X0X2XQ.3X5X3X2X",
":X:X;X>X1X1XtXeXS.#.~ j u K.S.O.o o O 0 n v H F S d 0 0 h d.S | p r h.6X5X1X4X4X=X=X9X5X2X3X3X2X2X2X",
":X;X>X1XeX5X;X;X3X*X$.[ m p 2 = $ O O 5 p G A A a < 1 p P f.b. .` ; w.yX<X:X4X=X4X5X9X4X3X2X=X=X2X~.",
";XwXwXeX1X:X>X:X5XP.[ | ^ P f 5 - @ O 3 v v x k < $ 5 h : b..X` ` T #.rX=X3X3X9X9X9X4X3X3X>X~.3X6X6X",
"wXeXeX1X1X>X;X>X3XU./ E ! P p 5 @ , p 8 z q 6 c 6 5 4 P X d 6X[./.x.s b.6XeX9X5X4X3X3X2X3X:X6X9X9X3X",
"eX1X>X>X>X<X;X<X;X<XV.~ ^ / f 2 r 5 ] Z w z 6 z a 7 7 j = 4 Y.@X`.7.C -XpX9X5X4X2X4X3X:X<X5XeXrX4X2X",
"~.:X>X1X<X;X<X7X9XG.=.P g f p d 4 8 S W z H ] J D v l M 2 2 +XC./ d o B.yX4X2X2X4X5X:X<X9X9XeX4X2XQ.",
"~.;X:X>X<X<X7XwXyX.Xf j P / Q f p n A J k v M G v c < 8 ; = f.+X3./ 3  X0X:X2X<X5X2X<X9XyX9X:XQ.2XQ.",
";X>X*X>X1XwX9X1X5X>X%.! o.o.P p h 8 b v v l @ & v @ = - 2 = f P.8.W m 9X4X=X=X<X5X=X9X0X9X2X2X=X2X~.",
">X;X~.1XwX1X1X9XD.| [ ....! f C p < 7 4 k b 7 * K 5 , 5 r r = w.c.T _ 4X3X2X2X4X:X5XtX9X4X2X=X=X~.Q.",
";X>XwXtX1X1X1X>X|  .p.5.Q g E g 4 1 0 Q 0 & % % 7 2 p h f f e E 4.g +.4X:X=X=X4X0X9X9X6X3XQ.Q.2XQ.2X",
";X7XtXwX1X>X:Xt.v.Y.3X1X$.P T P u u N  .E . # # . 8 / ) a L L e Q j ( 6X6X6X6X5Xh.G.0X5X2X2X:X2X~.3X",
"5XeX1X:X>X;X-XI.5X1XtX.XQ ! ^ E u p ^  .a 5 . . o o.E Q h P i T 2.j a d.d.f.-.g -.<X4X3X3X=X2X3X2X3X",
"9X1X;X>X:X;X>X1X<X8XuXC.[ 2.[ f g 3 `  .9 5 O 2 4  .` W C P e P | p i e : t : ( 4X6X4X2X:XQ.3X5X4X6X",
"1X;X>X>X~.;X;X1X7XyX#X2.,.[ P P j 2 ^ / 0 5 4 f 5 ^ | h m P i y Y I f I I I U ^ :.M.D.U.2X2X5X4X5X0X",
":X>X;X;X<X1XeXwX9XS.v.G.U.#.^ L f g Q N p 5 p f , T ^ d a P I U I { { I Y X.$.{ 2.M.*X2X3X9X9X5X0X4X",
">X>X<X1XeXeX1X1X:XoX3X9X5XB.A.' Y E h C 4 5 j u 3 p Q m u P I Y f I >.{ L 4.m.*X2X6X4X4X5X4X5X6X3X3X",
":X>X7XeX7X1X1X>X;X1X7XwX7XyX;XX.{ i E N 5 5 f f y 3 d Q p f L { L P <.>.I [.4X2X4X9X5X4X4X4X2X2X0X=X",
"1X7X9X7X:X<X<X;X<X7XtX7X1X6Xa.R ^ y d d 5 r i U E y 4 / C r P { R i b.8.R 5.2X4XtX9X4X=X4X2X2X9X6XQ.",
"eX5X>X>X>X:X<X,X9X9X7X<X3XI.1.A.g.y C 0 5 p f } ) : p } Q 8 ! I <.L } *X>.P -X0X9X4X1X4X2X3X0X0X2X2X",
"3X2X2X:X:X;X1XtX9X1X<X1X1X*X;XrXOXt h p 5 Q ;.! w.O.j ~ [ f f U K.#.> C.oX<.9X9X4X4X4X2X2XeX9X2X2X=X",
":X1X>X~.:X1X9X1X:X:X<X<X>X<X9XtX7Xw.+.5 , j G.h.7XrXp.3 h , r t g.*Xg.6.yX+X<X4X4X4X:X2X2X0X9X2X2XQ.",
">X:X~.:X1XtX3X>X1X:X>X<X<X7XtXtX5X0Xp.; 5 e Z.uX9XpX#Xj / 5 5 E a.pXpX,X<X5X:X4X=X2X2X9X9X4X2X=X=X=X",
":X:X~.1XtXeX1X>X:X*X,X7X9XtXtX1X=X2Xy.7 z # t.rXaX7X0Xq.n 4 * D..XtX9X2X2X4X:X4X4X9X0X4X6X2X=X2X2X4X",
"~.:X1XtX1X>X:X>X;X:X7X9X9X7X:X:X=X5Xn.K v & w.pX9X5X0Xi.B A * y.pX9X2X=X2X2X<X9X0X9X4X2X~.~.2X2X6X4X",
"~.>X9X3X:X:X:X>X<X9XeX7X:X=X:X:X=X5XM.7 l # G.rX:X<X2XM.k c @ p.yX<X4X=X:X:X9X9X9X2X4X=X4X4X4X5X2X2X",
"W.W.1X3X:X:X;X1X9X9X<X=X*X=X:X1X<X4XoX8 < - K.6X;X5X2X=XZ m 5 w.0X=X=X=X<X9X0X9X2X=X2X4X6X6X4X4X=XQ.",
";X;X;X>X1X1X<XeX7X<X:X*X=X-X7X9X9X9X-Xa 2 2 L.2X4X1X<X0Xt.[ 2 j.0X=X4X4X4X9X0X4X4X=X4X0X6X2X=X=X=X4X",
"~.;X1XeX3X>X5X:X:X<X*X:X:X1X9X7X:X9X4X( @ r oX9X9X1X5X4XK.Q 3 g.6X4X<X4X4X9X4X=X=X2X9X4X2X=XQ.2X6X6X",
"~.;X6X1X;X:X:X;X:X=X=X<X9X7X<X<X<X<X0X] = r  XyX4X<X:X=X9X#.e w.6X=X=X4X9X9X4X2X=X2X6X2XQ.Q.2X6X6X=X",
":X3X5X;XQ.Q.:X:X:X<X7X9X7X<X5X1X1X6Xf.4 n 2 :.0X=X;X<X<X0X;.e ] 2X=X9X9X0X4X2X2X=X2X2X=XQ.4X9X4X=X=X",
"~.1X>X:X:X:X:X=X;X7X9X9X:X1X7X=X4Xe.3 j y X w.6X=X4X7X7X2X%.P j -X0XtX4X=X=X2X=X2X=X2X=X<X6X3X=X=XQ.",
"5X:XQ.;X*X*X*X<X9X9X4X<X4X5X=X2Xe.= p q O.y.-X=X=X4X4X=X=X%.| y k.yX4X=XQ.Q.=X:X2X4X9X9X3X2XQ.Q.Q.R.",
">XQ.~.~.W.Q.>X9X9X3X:X:X=X<X=X2XP.m.H.<X0X4X2X:X=X4X<X=X4Xt.Y e h.0X=X=X=X=X=X2X4X0X9X2XR.R.E.=XQ.Q.",
":X~.:X~.;X:X1X1X:X:X:X=X=X=X=X5XyXyXrX4X=X=X=X=X:X4X:X4X0X9XH.i.2X=X=X=X=X=X4X4X0X4X=X=XQ.R.=X=XR.Q."
};
