/* XPM */
static char *_648918182192[] = {
/* columns rows colors chars-per-pixel */
"50 50 117 2 ",
"   c #030504",
".  c #060807",
"X  c #070A09",
"o  c #0A0C0C",
"O  c #0C0F11",
"+  c #0E1214",
"@  c #0E1618",
"#  c #121415",
"$  c #141719",
"%  c #171A1C",
"&  c #1B1D1D",
"*  c #191E22",
"=  c #1B2429",
"-  c #232524",
";  c #212628",
":  c #25292D",
">  c #2B2B2F",
",  c #272E34",
"<  c #282D32",
"1  c #2C3236",
"2  c #2E353B",
"3  c #31363A",
"4  c #33393D",
"5  c #353C42",
"6  c #393E43",
"7  c #3F4346",
"8  c #3C444B",
"9  c #3E4750",
"0  c #434A52",
"q  c #4A5159",
"w  c #5D5D5D",
"e  c #6C5E51",
"r  c #696154",
"t  c #7B6B5C",
"y  c #575E66",
"u  c #5C6167",
"i  c #656565",
"p  c #666769",
"a  c #67686C",
"s  c #6C6B6A",
"d  c #746F6C",
"f  c #786F68",
"g  c #636A72",
"h  c #6B6D71",
"j  c #6A6E79",
"k  c #777372",
"l  c #787775",
"z  c #7E7A75",
"x  c #74777D",
"c  c #987C66",
"v  c #857A74",
"b  c #807B78",
"n  c #A27F61",
"m  c #8D8077",
"M  c #85817E",
"N  c #8A837E",
"B  c #958875",
"V  c #91847B",
"C  c #96887D",
"Z  c #A18B76",
"A  c #A28F7C",
"S  c #BE9373",
"D  c #D09F77",
"F  c #DAA57B",
"G  c #E6A977",
"H  c #E9AB77",
"J  c #E6AD7C",
"K  c #EBAD7D",
"L  c #E6B17F",
"P  c #EBB07E",
"I  c #757C84",
"U  c #7F7F81",
"Y  c #838384",
"T  c #928B86",
"R  c #A08E82",
"E  c #A49182",
"W  c #A89284",
"Q  c #B09781",
"!  c #B59984",
"~  c #BD9E85",
"^  c #B69F8D",
"/  c #BBA18A",
"(  c #C7A083",
")  c #C7A488",
"_  c #CBA88C",
"`  c #D4A683",
"'  c #DDAB85",
"]  c #D5AC8C",
"[  c #D9AD8A",
"{  c #D8B28E",
"}  c #C6A993",
"|  c #D4AF92",
" . c #E6AE81",
".. c #EBAE82",
"X. c #E7B183",
"o. c #ECB384",
"O. c #EEB987",
"+. c #E4B28A",
"@. c #EDB589",
"#. c #EEB98C",
"$. c #F1B485",
"%. c #F4B887",
"&. c #F1B68A",
"*. c #F2BA8C",
"=. c #F9BC8C",
"-. c #E1B694",
";. c #EEBB91",
":. c #F3BD93",
">. c #F9BE93",
",. c #F5BF98",
"<. c #EFC093",
"1. c #F4C195",
"2. c #FBC294",
"3. c #FEC997",
"4. c #F5C399",
"5. c #F9C49B",
"6. c #FAC9A0",
/* pixels */
"@.&.P P P G L O.@.o.P K J o.#.@.&.$...J  .$.;.@.&.@...$.;.:.@...$.....,.$.$.$.J ..$...H H *.%.P K K ",
"%.o.P L G L o.X.o.P J X.@.O.o.$.X... .$.;.&.$.$.&.o.$.&.,.&.$.$.....$.*.@.&...$.&.$.$. .o.2.P K H G ",
"o.H P H F O.#.L X.X.#.#.&.@.o.J ..&.&.;.&.@.$.......&.;.&.@.&.....&.:.&.$.$. .$.*.$. .J &.*.o.K H K ",
"P P o.L P o.o.X.o.O.O.o.@.P J @.:.;.#.$.@.......@.,.,.....&.&...&.:.,.$...$.&.&.%.$.K &.*.o.P o.H K ",
"P P J J L O.O.@.o.o.o.+. . .@.;.:.$.@.#.o...@.;.,.@.&.+...o.o.@.:.,.o.$...$.>.&.$.o.P 1.%.P $.H P &.",
"J K J  .o.#.@.@.o.o.o.O...o.:.:.@.@.@.o...#.#.:.;.&.@.$.$.....,.,.&.@...$.:.*.&.@.K &.1.$.$.K K &.&.",
"J L o.L @.O.X.$.@.X. .o.&.:.@.@.@.o. .@.#.:.:.@.$.@.$.....@.;.,.:.$.....o.,.&.$.K %.>.&.$.$.H %.<.P ",
"O.@.o.L @.@.o.@.J  .o.;.:.@.o.@.@...+.:.,.:.@.o.o.@. .$.;.,.:.&.&.$.....&.:.$...&.*.*.$.$.P P *.%.P ",
"@.P P o.#.@.o.X. .@.#.1.@.o.@.o.o.o.;.4.:.#.o...@.o.+.:.,.&.&.@.@.o.$.#.:.&.$.*.*.$.$.%.$.$.%.=.%.P ",
"P L L #.O.o.o.X.o.;.;.o.@.@...o.@.:.1.&.$.#.@.@.o.@.,.,.@.@.$.@...@.@.,.:.&.:.&.$.$.J $.%.*.>.=.P $.",
"X.J O.#.o.P X.O.#.#.@.o.o.X. .@.;.:.@.o.*.@.@.+.@.,.,.@.@.&.@...#.;.:.:.*.=.=.o.@.$.@.*.*.*.%.P P P ",
"X.+.O.O.@.X.#.;.#.@.X.X.X.@.#.;.;.#.o.@.@...o.@.,.,.@...$.@.$.o.>.1.*.%.' ~ V ( %.@.>.,.=.K $.K P K ",
"@.o.L o.o.<.*.O.o.X.+.#.1.;.#.&.#.@.@.@...@.;.1.:.&...@.@...@.#.>.2._ d 0 1 y ' &.:.>.&.P K P $.P P ",
"o.o.o.X.O.o.+.X.X.;.;.;.:.O.@.@.&.o.@.@.;.,.:.;.@.@. .$.o.@.#.,.>.~ y * # * v >.,.%.&...P $.$.P %.=.",
"o.o.L #.<.O.J +.;.,.#.#.O.#.@.@.o.@.4.<.:.*.*.@.$.....@.@.:.#.5.! 0 & $ & 6 } >.o.$.$.o.%.$.$.*.=.=.",
"O.P O.X.O.O.#.<.4.#.@.#.@.o.o.@.;.1.4.;.@.:.&.@.#.#.:.&.$.$.=.^ 9 # O # 3 Y ;.%.*.$...&.P P %.%.%.P ",
"o.o.X.o.#.:.<.<.#.X.@.O.@.o.;.:.1.:.@.#.O.#.@.:.;.1.:.*.@.%.W 0 % O O : h { =.$.o...*.:.$.@.%.$.$.$.",
"X.X.O.#.#.O.@.o.o.O.@.X.@.#.:.1.:.O.@.#.#.o.;.4.1.*.O.@.*.R 9 % $ & < a ` %.&...&.:.>.&.%.$.o...$.K ",
"O.O.1.1.#.@.o.O.@.o.+.@.@.;.4.:.#.@.O.@.@.#.1.4.*.O.*.*.T 6 & * $ 3 a [ %.o.&.&.,.:.&.&.&.O.P @.=.*.",
"<.4.<.#.#.O.o.#.@.X.#.;.;.4.:.#.@.#.O.@.#.1.4.*.*.&.O.v 3 $ $ + < i ` %.@.,.:.=.&.$.%.$.%.o.%.>.2.&.",
"<.#.#.O.@.@.o.o.o.#.1.4.:.#.#.;.*.@.o.#.<.4.*.@.&.@.T 1 X # o < i ` %.#.,.,.*.*.$.&.$.o.@.&.1.2.$.P ",
"o.o.O.O.@.X.+.;.;.<.1.;.:.O.#.O.#.o.#.1.1.:.&.=.@.b 5 + o   ; i ' =.,.>.:.&.&...*.&.$.$.:.5.>.%.$.P ",
"X.X.O.@.@.@.;.4.<.;.#.#.#.O.O.+.@.;.1.1.:.@.%.{ Y 5 . O O ; e ] >.:.,.>.&.&.$.$.&.$.@.:.5.>.o.K %.P ",
"o.+. .O.;.<.<.#.;.#.o.o.@.@.@.#.<.4.<.*.#.=.[ Y 6 o o . 1 p +.&.;.5.:.:.$.$...@.%.$.:.,.&.%...o.$.P ",
"o.X.X.#.<.;.O.#.O.O.O.@.o.@.4.4.1.:.O.@.%.] h 3 O O X 1 s  .&.#.1.1.*.&.$.$.$.@.@.&.4.>.%.$...$.P K ",
"P O.<.4.;.O.@.@.+.O.@.@.;.;.4.1.*.@.&.=.| x <   # $ 5 l +.%.;.6.5.:.%.&.$.$.&.&.&.:.1.>.$.K K $.P P ",
"O.;.4.<.#.+.o.o.#.o.@.;.4.4.#.#.O.#.%.) x 3 o X . 3 z @.=.&.,.,.:.&.$.$.&.@.$.&.5.4.&.&.$.$...$.$.%.",
"#.<.#.o.o.X.O.O.+.@.;.4.4.;.@.+.O.%.} g : O + X , k +.&.#.5.5.*.&.&.$.o.@.&.*.,.>.%.%.&.&...%.%.P %.",
"1.#.o.X.X.X.O.O.@.;.4.;.*.&.o.@.%./ I <   # + 2 z @.*.#.,.5.:.*.*.&.$.$.&.1.4.*.$.@.$.$.P P %.*.=.=.",
"#.X.O.O.X.O.X.#.;.4.;.+.O.@.@.%.^ j < O O X 2 z -.%.*.1.5.,.*.*.*.@.@.:.4.2.&.$.$.@.$.o.o.$.%.*.&.>.",
"o.O.O. .@.#.;.<.#.O.+.O.o.o.@.E q - O # O 5 z o.%.@.1.4.>.*.&.*.o.&.,.5.1.&.$.&.@.X.&.o.&.1.>.*.>.%.",
"X.O.@.#.<.<.;.#.#.@.o.@.#.*.-.3 & - # X 6 T @.&.:.5.4.*.&.&.&.&.$.,.5.:.%.%.$.o.$.%.&.&.%.&.*.=.&.$.",
"O.O.#.4.:.#.O.@.X.#.;.<.4.;.2.Z # 4 & 2 T #.*.1.1.>.*.*.&.&.o.&.>.5.>.@.&.&.$...&.,.,.&.$.&.$.$.>.$.",
"#.;.;.;.o.@.o.X.O.<.4.<.#.+.&.S r ; = m :.4.1.:.#.*.*.O.@.&.:.:.1.*.&.&.:.&...;.,.,.@.$.$.$.&.:.=.P ",
"<.*.@.o.O.+.O.+.;.4.#.o.o.%.A A 5.c f ,.>.;.*.#.&.@.@.:.:.:.4.:.>.&.&.$.$...*.,.>.&.&.$.$.$.>.>.$.K ",
"*.$.$.O.o.X.#.1.;.#.@.*.*.A Z 1.4.6.5.,.o.O.@.&.&.#.*.4.2.:.:.&.&.o.$.&.$.,.,.*.$.&.%.$.$.:.>.$.$.$.",
"P %.o.P o.<.1.#.o.o.*.F B Q 2.1.,.:.#.@.$.@.#.@.;.,.5.4.:.&.&.&.$.$.:.,.:.:.&.&.&.$.$.o.&.2.*.$.$.H ",
"o.O.P o.O.1.&.@.o.*.S 2 t 3.4.4.#.@.o.@.@.@.@.;.4.4.:.*.#.$.$.@.#.5.,.:.&.&.&.&...$.$.>.*.%.$.$...$.",
"o.P o.#.1.1.O.O.O.X.D e +.5.;.#.....@...@.o.#.,.6.4.*.o.&.o.@.@.,.,.:.$.&.$.$.$.$.:.>.&.%.$.K ....&.",
"P O.#.1.#.#.o.@.o.o.1.4.1.;.@.o.$.$...@.#...,.,.1.*.o.@.&.@...:.5.;.$...&.$.@.;.,.,.%.$.P $.$.%.=.=.",
"X.o.:.O.o.o.o.o.@.;.:.#.@.X.o.o.$.$.o.;.,.,.#.#.$.@.o.$.&...;.6.,.&...$.@.$.:.,.&.%.&.$.$.&.&.>.$...",
"P X.O.@.o.o.o.O.1.;.@. . . ...#.+.o.,.,.;.@.@.@.o.@.o.$.$.$.,.,.&.@.@...$.&.5.*.$.$...&.=.=.&.$.$.K ",
"X.L o.O.O.O.@.1.#.O.@... .X.;.,.;.;.,.;.o.o...o.@.&.@.;.$.,.,.&...&.@.@.$.:.>.&.$...&.>.=.P ..K ..&.",
"P  .O.1.#.#.*.@.o.@. .X.@.;.;.#.o.,.o... . .@.;.,.;.#.@.@.,.;.$...&.@.$.&.,.&.....$.>.&.$...K &.=.=.",
"P X.1.%.o.o.o. .o. . .o.;.;.@.o.@.;.+... ...,.,.&.$.o...,.;.&.&.......&.:.>.@.$...$.=.$.P K $.>.$.$.",
"o.&.*.X.P X.P o...@.:.,.:.@.&.#.;.@.....@.,.,.;...o.+.;.:.&.$.....&.:.,.>.$.o.$.K $.$...K &.*.=.$.K ",
"P O.@.o.o.X.o. .o.;.,.;...@.#.@.@.....#.,.,.&.....@.&.;...$.....&.,.,.&.$...$...$.$.o.K &.>.%.K ..K ",
"*.o.K L  .J  .@.:.:.:.@.$.#.@.....@.,.,.,.@.....@.&.&.......&.&.,.>.&.....K ..K $.&.:.>.&.$.K H K G ",
"O.P P P J J @.1.:.&.@.$...o.$...@.:.:.,.$.......$.@.......&.,.,.*.&...........$.>.>.*.&.G H H ..K K ",
"o.P o.P X.o.*.O.o.o.X.K .... .*.:.:.:.....$.....$.$.$.&.:.,.*.o.............&.&.=.$...G K H ....G K "
};
