/* XPM */
static char *_648918176211[] = {
/* columns rows colors chars-per-pixel */
"50 50 27 1 ",
"  c #E6A977",
". c #E8AB77",
"X c #E6AD7C",
"o c #EAAE7D",
"O c #ECB17F",
"+ c #F0B27F",
"@ c #E6AE81",
"# c #EBAE81",
"$ c #E7B182",
"% c #ECB385",
"& c #EDB886",
"* c #EDB689",
"= c #EEB98C",
"- c #F1B485",
"; c #F1B887",
": c #F1B689",
"> c #F2BA8C",
", c #EEB790",
"< c #EEBC91",
"1 c #F3BD92",
"2 c #F8BF94",
"3 c #F4BF98",
"4 c #EFC094",
"5 c #F4C196",
"6 c #F9C194",
"7 c #F5C399",
"8 c #F8C39A",
/* pixels */
"*&OOOXX&-*OXX*:=%%#oX:1*-*#*12*--##1--##-##.O;>#oo",
";%OX X&$-$X%***%%##:,:**-#-,1:--##-1*-##:--.;>o.. ",
"%.%XX$&$$$=;**%o*:*1:**#%#*,::-##:21-##-:-##;>%o .",
"OO%.$&&$$&*%%Oo$<,=#*%##,3,-#*-#>11:#->>-*o*>-OO.O",
"O$X.X&&***%*###11%*=%##,3:,*%%%,33#--:2:;%%>>++o$;",
"X.$@$<**$&$*#*<1*:=$%*11<*-#%#%,3:-#-1::-o>>:+#o;>",
"XO$$=>$*&@#$*<**:$#*,3<***%##*33,-###2:-O:2;-+.;2%",
"&&&X*&%$@@*<1**:*$*111%*%%@#131*:--#:1%-:>>--+O>;O",
"*%$$=&$$#*<1=*%$$*<2,=*#*%*31=:*$:-=3>::;--:-+-2&O",
"OXX=*&$#*<*&%*#%*<2=-=**%*11=**-#**32:1::-oO;;2>O-",
"$@&=*O$=*=**$$#$<3:*>**$=33**:*#=112::%%*%;5>6--+O",
"$&&&*$*<=*$$*$=1<*%**#*=33*#*:-%15>*%*%%:->6;O-ooO",
"&$$%$=<&*@$<<1,==***$*111*%#*#*=5>**%%-#:12:-.+-+o",
"&&$&=&*$$<111=**=#**<31<**#-#*=22**-%#%,11:#+-+O:>",
"$&$&=$$$<4<=*=****7711>**##*:1<1:-*##*21---%--+>2>",
"&$$&&=<47**=*$$=<14<&>:**=1>::*1*-*o:21::-#:++:>-+",
"$&$*&<4<&&=,=$<<5<=*&=*1153>;%,1:-$:1:::##11*-;--+",
"&$*&<=*&$**$*=551&&=&*<75>:**:81::-1--:%:22:;;%#-+",
"$=54=*&*=*$$*<71>*=***57&;>*=72::*&1#-::21*-;-O->2",
"575==&$**@==371**=**=77>>:*>571::%#*=32:>;&-;O>22-",
"1&&****$$&474<><=*&=57>:>*%17>>:-%->31:1%;%%*:56:+",
"&&*==$=,<77<===*=&&551:>;*>75>:>*=2721-#:>--262>++",
"$$&$$*<74,&==&=$*<751*:>*:52>;:::182::-%>-%172*o#+",
"&*@*=54<=***<*$<<7<>>>**176>>>:-172>:#-*:-18>;%+-+",
"$$$=41&==$=$$$3751=&&=:=77>>>::187>:---:**82:-o-#+",
"$&<74&&*=&==<774>*:>1*>78:;>>:178>::--:-:22>-Oo-o+",
"&<7<=&&$=$*<77<*==;*:>5511>>>>571:*-:*-:77>>--+--:",
"=1=&*$$*=$<74<*=&**%<77>>;*::68>::-**-12>::-:%-:+-",
"5,$&$$&**<4==&*%***<871>::;>685>>:*->27>---*-+->:>",
"==$&$$$,4<<,&***&<571>>=:*1587>>:*-185;--;;%-;>>22",
"&&$$$=47<&*$***=*57==;:*=:552>:>*=282::-*#:%;>>>2;",
"&$&=55<=****=*1<411;;-**177>:;-:>181::-%-:;;;>>2;-",
"$$174==$**<44<<=**=*:=<155>>;:*:172*:>-#:31:-:--:-",
"=55=$**$$47<<&=*&*1<>7511;>&*:>172:-,>#132:-:-*22+",
"64&%&*$=47=**$*$,<771>>>:*:111322::--#>32::--;22-+",
";%-&$$,7<<*&***17721:*&::*1372>::%---131-:--->5--+",
"%&%O$=5&$***$*<731=:****<377>:,::-1332:*----:2>+-o",
"O&O&=7&***$*:3771:%%$**1787;::-%,781::*:%-:22>-++#",
"%%O=75&*%#$<371=##*$*:=375>%;-%%271%--%:*22:--#+--",
"O&>5;=&*@*<<1<$&%%#%=%1171%*,**171-#-*:,11:---+:2:",
"$$1&%%&&*351%#*$#*%,3<<1**#**%17,,*#%:22::---:>>-+",
"$#&*%$#*<<*$@@#=**33<&:-*:%:%-23:-*%**8>---:2>:-#+",
"%o&&=&*51*%#$#<3<<3**%#$-,-:%33,--::#26:-#-3:--++:",
"$#;1>&>%$*@$*<<<#3**$#*<3:,**31--**-:3:##-2:-#o-2:",
"O@1;%%%#$##$<3*-*=*@#*,3:*$#11:*###,2>:##->-#o-2--",
"&&1$o$%%$*<21$:=,*#@%33,#$*:1,--#-,31:--o:-o+->:##",
"%&*%$%$#*<21%*<*%##13,*-%-1=#-##:23>#%-+--%o*2:+#o",
";&Xo@X@*<2,**=%##=133,*#%,:###::32:##o#o-:22--oooo",
"*oo$oo*52*%o-%#%*133*#-##:-##,222-#####-:22-o..oo.",
"$O%%$%>&%%$%###>21:%####*%-*12,-######::2:#.. #+ o"
};
